<svg width="595" height="940" xmlns="http://www.w3.org/2000/svg" version="1.1">
 <metadata id="metadata5355">image/svg+xml</metadata>
 <metadata id="metadata5357"/>

 <g>
  <title>Layer 1</title>
  <path fill="#e0ded2" id="path5482" d="m12.70047,903.42679c0,0 -0.9483,20.61253 2.01526,23.99883c2.96346,3.38643 12.3281,3.97535 36.9844,4.26981c24.65631,0.29447 55.249,0.41569 68.90535,0.88252c13.65635,0.46683 29.93769,0.0698 29.93769,0.0698c0,0 7.04152,-2.3495 8.7224,-1.6968c1.68187,0.65257 3.25807,3.1327 5.67569,3.39373c2.41664,0.26103 9.24779,0.13051 12.50586,-2.34962c3.25807,-2.48001 2.62699,1.04423 4.41353,1.69693c1.78656,0.65269 10.40427,1.04423 13.13694,-3.0022c2.73267,-4.04642 -1.26116,-3.78539 1.99691,-4.17694c3.25807,-0.39154 4.87114,-1.6121 8.47515,3.30136c3.605,4.91334 4.22013,2.62043 7.12129,2.51122c2.90115,-0.10922 4.13139,1.41943 8.35053,-1.96539c3.3408,0.32765 4.04466,0.54596 6.68162,-2.94795c4.13139,0.43674 6.77932,0.35241 6.77932,0.35241l1.69683,-2.21552l5.31678,0.0768c0,0 0.92717,2.30356 3.64688,2.99452c2.7207,0.69108 6.24395,-1.07495 8.0983,0.0768c1.85434,1.15184 3.77149,5.1444 5.81128,5.83548c2.03978,0.69108 16.18762,-1.45844 23.10054,-0.92177c6.91191,0.53654 14.8826,2.32721 25.58995,2.16103c10.70735,-0.16617 18.87145,1.32991 27.16913,0.83113c8.29869,-0.49865 25.84917,1.47788 38.10978,0.5732c12.2596,-0.90456 66.18315,-0.78581 80.62909,-1.41176c14.44594,-0.62594 61.45257,1.50215 78.61023,1.92837c17.15868,0.42621 16.36909,2.69621 22.11755,2.83081c5.74747,0.13472 19.63013,-3.23288 22.34087,-5.79227c2.71172,-2.55938 1.41069,-2.15533 3.90509,-0.40417c2.49439,1.75116 2.81939,2.69411 6.28981,-1.88576c3.47042,-4.58 1.12357,-6.7788 1.87528,-16.27214c0.75171,-9.49322 0.75171,-18.36395 0.75171,-18.36395c-0.26619,-39.51144 -0.74473,-72.84945 -0.52341,-83.54812c0.22033,-10.69868 -0.72378,-16.79592 -0.59219,-20.55904c0.1316,-3.76435 2.50337,-7.20055 2.50337,-7.20055c0,0 -4.34774,-16.03811 -3.55716,-23.07521c0.78959,-7.03587 2.35582,-11.16055 2.35582,-11.16055l0.18245,-53.12312l-3.14242,-2.7985l2.5891,-2.80593l0.27516,-7.80111l-4.35271,2.94213c0,0 3.46741,-6.74115 3.59502,-12.28738c0.12762,-5.54621 1.50741,-35.58918 1.24421,-39.17769c-0.2622,-3.58976 -2.4954,-6.8526 -2.4954,-6.8526l2.8902,-3.4263l-0.12961,-25.94677l-3.6369,-0.54235c0,0 -1.89123,-8.49209 -4.21913,-14.45435c3.63689,-6.14432 6.83813,-7.58938 6.98369,-11.9258c0.14556,-4.33644 -1.31001,-16.08145 -1.31001,-16.08145l1.28907,-12.84708l-6.10737,-5.57841l3.95196,-2.67839l-2.51534,-6.6941c0,0 5.74946,-8.03267 5.74946,-13.3882c0,-5.35553 -2.33587,-7.13988 -2.33587,-7.13988c0,0 1.43762,-16.28947 0,-20.97633c-1.43761,-4.68562 -4.67075,-6.91699 -4.67075,-6.91699l2.08265,-6.11583l-6.07748,-1.13179l-0.71083,-4.17544c0,0 5.12936,2.09267 7.27282,-2.66106c2.14347,-4.75496 1.35289,-22.40777 1.35289,-22.40777l2.38073,-21.15093c0,0 -0.81552,-27.55033 -0.41972,-33.94725c0.39679,-6.39814 1.98095,-8.85859 1.98095,-8.85859l-2.57515,-17.71473l1.98096,-9.35019l3.05469,-8.68896l-4.589,8.44254l-4.24805,-17.20208l-0.41074,-3.87827c0,0 3.87518,-5.11407 3.99581,-9.02453c0.12163,-3.91047 -1.69483,-8.42396 -1.69483,-12.1846c0,-3.75939 0.25223,-15.43507 0.25223,-20.32005c0,-4.88375 2.24714,-9.41954 2.24714,-9.41954l-2.52828,-3.14026l1.12357,-8.89822l-1.26414,-9.59414l2.38771,-4.53579c0,0 0.23329,-5.61062 -2.2611,-8.92299c-2.49439,-3.31115 -4.38662,-4.48626 -4.38662,-4.48626c0,0 2.23617,-5.66262 1.29006,-8.11936c-0.94611,-2.45797 -1.97796,-5.76911 -1.97796,-5.76911l-4.60895,-6.46997l0.79657,-13.85751l-3.18728,-2.77125c0,0 1.19536,-3.56375 0.63706,-5.64281c-0.5573,-2.07782 -2.39071,-2.47406 -2.39071,-2.47406c0,0 2.05773,-5.08312 -0.66795,-6.30653c-2.72669,-1.22217 -13.10105,-1.31629 -13.10105,-1.31629c0,0 1.28707,-13.54421 5.30084,-17.49554c4.01375,-3.95009 15.37011,-2.18184 18.18552,-4.03925c2.81443,-1.85741 4.83824,-7.75778 4.83824,-7.75778l-7.30172,0c0,0 0.96805,-7.32066 0.61613,-10.81754c-0.35194,-3.49565 -0.7557,-5.93257 0.78958,-9.00224c1.54529,-3.07092 1.96731,-18.6141 -1.78258,-22.114l-5.48127,-63.01104l-1.59811,-10.2529l-1.33096,-11.24475c0,0 12.66937,-10.18356 12.82389,-14.57447c0.15353,-4.39215 -2.45949,-14.70201 -9.53092,-14.8927c-7.07044,-0.19069 -7.99362,2.67343 -7.99362,2.67343c0,0 3.84327,8.78183 -0.30707,6.10964c-4.15034,-2.67344 -1.07572,-8.78307 -1.07572,-8.78307c0,0 -13.52774,0.19069 -17.83161,0.57332c-4.30387,0.38138 -7.84707,0.27366 -14.09203,-0.74668c-6.24495,-1.02034 -9.03943,-3.67396 -11.3404,-1.02034c-2.29999,2.65362 0.32899,8.16518 -2.95798,11.22618c-3.28698,3.06225 -0.82149,-4.28566 -5.09447,-9.7972c-4.27296,-5.51156 -5.58795,-0.81727 -10.68241,-0.40864c-5.09447,0.40864 -5.75247,0.81602 -11.01142,-1.02034c-5.25895,-1.83759 -94.14287,-2.71181 -105.78337,-1.13549c-11.6405,1.57755 -33.8378,2.79478 -38.66707,2.79478c-4.82928,0 -3.35976,-3.12911 -11.33842,-3.39039c-7.97966,-0.26127 -15.32825,1.3039 -15.32825,1.3039c0,0 -1.83241,3.23808 -4.0327,1.45621c-2.19929,-1.78187 -1.72075,-2.25737 -6.69458,-2.01963c-4.97284,0.23776 -10.61563,-0.95099 -12.14595,-0.11887c-1.53034,0.83212 -3.15638,2.49388 -2.96496,5.70224c0.19142,3.20713 1.91316,6.05764 -1.81746,7.24637c-3.72962,1.18751 -4.33179,-1.85863 -7.06047,-1.2135c-2.72867,0.64638 -4.54813,8.87718 -7.537,5.16483c-2.98889,-3.7111 -0.12962,-5.97094 0,-9.19912c0.13059,-3.22817 2.98887,-5.81121 -0.12962,-5.81121c-3.11848,0 -5.71756,4.03552 -5.71756,4.03552l-1.81945,-5.32581c0,0 -69.3435,0.19689 -81.97299,1.03768c-12.62948,0.83954 -91.52386,2.63752 -117.27752,-0.0272c-25.75365,-2.666 -53.89632,-5.02367 -59.76771,0.50769c-5.87139,5.53261 -3.4418,10.81383 -3.4418,10.81383c0,0 -4.04925,-5.5326 -6.68123,2.51493c-2.63197,8.0463 12.14765,12.82479 12.14765,12.82479c0,0 -4.28732,48.17499 -5.82234,74.86719c-1.53502,26.6922 4.60516,67.20723 4.60516,67.20723l1.72703,6.1666l-5.9333,1.05253l1.69522,14.31815l10.67993,1.47355c0,0 -3.89901,-7.36896 -0.67813,-9.05301c3.22098,-1.68529 6.44195,6.52693 8.64573,13.26436c2.20378,6.73869 -5.08569,11.58033 -5.08569,11.58033l2.0343,8.21222c0,0 -7.62854,-0.84202 -9.83241,-3.36933c-2.20378,-2.52608 -1.0171,8.84374 -1.0171,8.84374l6.78092,4.21136l-3.55995,11.15932c0,0 5.79403,5.44591 3.86083,10.51416c-1.93321,5.06949 -9.23653,13.87361 -9.23653,13.87361c0,0 -2.1979,25.63967 -1.33952,29.66777c0.85849,4.0281 4.48313,6.7523 4.48313,6.7523c0,0 -4.00618,2.13354 -4.76925,7.10892c-0.76307,4.97538 -0.13938,22.66906 2.47954,25.56042c2.61891,2.89137 5.67429,1.62709 5.67429,1.62709l5.52884,19.87799c0,0 -7.12926,2.349 -10.18464,9.21646c-3.05538,6.86622 2.76437,9.5768 2.76437,9.5768l-4.36479,5.96352l4.49698,8.49455l0.90126,11.19398c0,0 -6.66906,1.56642 -6.84931,8.73106c-0.18025,7.16341 7.57021,11.86513 9.91346,18.13326c2.34315,6.26814 5.04681,10.74573 0.54065,14.9992c-4.50606,4.25346 -7.93071,2.01466 -7.93071,2.01466l0.96775,16.71545c0,0 13.23075,2.30689 12.07009,12.10906c-1.16057,9.80216 -15.31968,7.78378 -15.31968,7.78378c0,0 3.24959,47.85799 2.32112,53.91191c-0.92847,6.05515 -1.87658,24.69487 -2.53357,40.20051c-0.6571,15.50689 0.98559,59.9844 0.65699,67.32982c-0.3285,7.3442 1.1804,15.70378 1.1804,15.70378l10.17128,4.89117c0,0 0,5.29734 -2.95299,18.33758c-2.9529,13.04149 0,23.22875 0,23.22875c0,0 -4.92149,0.81602 -8.20258,12.2267c-3.281,11.41069 0.32809,52.97702 0.32809,52.97702l4.99078,5.12644c0,0 -5.8368,6.97024 -6.51024,17.28753c-0.67355,10.31728 2.24485,35.69072 2.24485,35.69072c0,0 -2.20108,28.74526 -2.20108,39.04323c0,10.29785 3.20941,61.78633 3.20941,61.78633"/>
  <path fill="#798000" id="path5507" d="m71.8914,739.047"/>
 </g>
</svg>